solid OpenSCAD_Model
  facet normal -1 0 0
    outer loop
      vertex -50 -50 10
      vertex -50 50 10
      vertex -50 -50 0
    endloop
  endfacet
  facet normal -1 0 0
    outer loop
      vertex -50 -50 0
      vertex -50 50 10
      vertex -50 50 0
    endloop
  endfacet
  facet normal 0 0 1
    outer loop
      vertex -50 -50 10
      vertex 50 -50 10
      vertex 50 50 10
    endloop
  endfacet
  facet normal 0 0 1
    outer loop
      vertex -50 50 10
      vertex -50 -50 10
      vertex 50 50 10
    endloop
  endfacet
  facet normal 0 -1 0
    outer loop
      vertex -50 -50 0
      vertex 50 -50 0
      vertex 50 -50 10
    endloop
  endfacet
  facet normal 0 -1 0
    outer loop
      vertex -50 -50 10
      vertex -50 -50 0
      vertex 50 -50 10
    endloop
  endfacet
  facet normal 0 0 -1
    outer loop
      vertex -50 50 0
      vertex 50 50 0
      vertex -50 -50 0
    endloop
  endfacet
  facet normal 0 0 -1
    outer loop
      vertex -50 -50 0
      vertex 50 50 0
      vertex 50 -50 0
    endloop
  endfacet
  facet normal 0 1 0
    outer loop
      vertex -50 50 10
      vertex 50 50 10
      vertex -50 50 0
    endloop
  endfacet
  facet normal 0 1 0
    outer loop
      vertex -50 50 0
      vertex 50 50 10
      vertex 50 50 0
    endloop
  endfacet
  facet normal 1 0 0
    outer loop
      vertex 50 -50 0
      vertex 50 50 0
      vertex 50 50 10
    endloop
  endfacet
  facet normal 1 0 0
    outer loop
      vertex 50 -50 10
      vertex 50 -50 0
      vertex 50 50 10
    endloop
  endfacet
endsolid OpenSCAD_Model
